<svg id="Capa_1" data-name="Capa 1" xmlns="http://www.w3.org/2000/svg" viewBox="0 0 462 424"><defs><style>.cls-1{fill:#242831;}.cls-2{fill:#00fece;}</style></defs><title>logo09</title><ellipse class="cls-1" cx="231" cy="212" rx="231" ry="212"/><path class="cls-2" d="M515.73,370.46l-38,24.5,38,24.32v22L442.14,395l73.59-46.65Z" transform="translate(-409 -188)"/><path class="cls-2" d="M555.92,382.41l-.34,4.52,1.95-2.89,31.4-36.82h17.25l-34.62,40,35.89,51.53h-17l-28.63-42.23-5.87,6.16v36.07H542.35V347.22h13.57Z" transform="translate(-409 -188)"/><path class="cls-2" d="M651.26,347.72h15.53l20.82,64.85-2.3-1,16.1-45,6.21,19.86-22.89,56.42Zm40.83,0h13.34l23,63.47-2.65-.51,19.09-63h14.38l-32.78,95Z" transform="translate(-409 -188)"/><path class="cls-2" d="M778.13,419.1,816,394.78l-37.88-24.32V348.31l73.59,46.47-73.59,46.47Z" transform="translate(-409 -188)"/></svg>